<svg width="108" height="18" viewBox="0 0 108 18" fill="none" xmlns="http://www.w3.org/2000/svg">
<path d="M-4.44055e-05 17.6934V0.238813H3.6903V7.44052H11.1818V0.238813H14.8636V17.6934H11.1818V10.4831H3.6903V17.6934H-4.44055e-05ZM33.946 8.96609C33.946 10.8695 33.5852 12.4888 32.8636 13.824C32.1477 15.1593 31.1704 16.1792 29.9318 16.8837C28.6988 17.5826 27.3125 17.932 25.7727 17.932C24.2215 17.932 22.8295 17.5797 21.5965 16.8752C20.3636 16.1706 19.3892 15.1507 18.6733 13.8155C17.9573 12.4803 17.5994 10.8638 17.5994 8.96609C17.5994 7.06268 17.9573 5.44336 18.6733 4.10813C19.3892 2.7729 20.3636 1.75586 21.5965 1.057C22.8295 0.35245 24.2215 0.000176907 25.7727 0.000176907C27.3125 0.000176907 28.6988 0.35245 29.9318 1.057C31.1704 1.75586 32.1477 2.7729 32.8636 4.10813C33.5852 5.44336 33.946 7.06268 33.946 8.96609ZM30.2045 8.96609C30.2045 7.73313 30.0198 6.69336 29.6505 5.84677C29.2869 5.00018 28.7727 4.35813 28.1079 3.92063C27.4431 3.48313 26.6647 3.26438 25.7727 3.26438C24.8806 3.26438 24.1022 3.48313 23.4375 3.92063C22.7727 4.35813 22.2556 5.00018 21.8863 5.84677C21.5227 6.69336 21.3409 7.73313 21.3409 8.96609C21.3409 10.199 21.5227 11.2388 21.8863 12.0854C22.2556 12.932 22.7727 13.574 23.4375 14.0115C24.1022 14.449 24.8806 14.6678 25.7727 14.6678C26.6647 14.6678 27.4431 14.449 28.1079 14.0115C28.7727 13.574 29.2869 12.932 29.6505 12.0854C30.0198 11.2388 30.2045 10.199 30.2045 8.96609ZM36.6796 17.6934V0.238813H43.566C44.8842 0.238813 46.0092 0.474609 46.941 0.9462C47.8785 1.41211 48.5916 2.07404 49.0802 2.932C49.5745 3.78427 49.8217 4.78711 49.8217 5.94052C49.8217 7.09961 49.5717 8.09677 49.0717 8.932C48.5717 9.76154 47.8473 10.3979 46.8984 10.8411C45.9552 11.2843 44.8132 11.5059 43.4723 11.5059H38.8615V8.53995H42.8757C43.5802 8.53995 44.1654 8.44336 44.6313 8.25018C45.0973 8.057 45.4438 7.76722 45.6711 7.38086C45.9041 6.9945 46.0206 6.51438 46.0206 5.94052C46.0206 5.36097 45.9041 4.87234 45.6711 4.47461C45.4438 4.07688 45.0944 3.77574 44.6228 3.5712C44.1569 3.36097 43.5688 3.25586 42.8586 3.25586H40.37V17.6934H36.6796ZM46.1058 9.75018L50.4438 17.6934H46.37L42.1257 9.75018H46.1058ZM56.12 0.238813V17.6934H52.4296V0.238813H56.12ZM58.9687 17.6934V15.503L67.6789 3.28143H58.9517V0.238813H72.3153V2.42915L63.5965 14.6507H72.3323V17.6934H58.9687ZM90.3835 8.96609C90.3835 10.8695 90.0227 12.4888 89.3011 13.824C88.5852 15.1593 87.6079 16.1792 86.3693 16.8837C85.1363 17.5826 83.75 17.932 82.2102 17.932C80.659 17.932 79.267 17.5797 78.034 16.8752C76.8011 16.1706 75.8267 15.1507 75.1108 13.8155C74.3948 12.4803 74.0369 10.8638 74.0369 8.96609C74.0369 7.06268 74.3948 5.44336 75.1108 4.10813C75.8267 2.7729 76.8011 1.75586 78.034 1.057C79.267 0.35245 80.659 0.000176907 82.2102 0.000176907C83.75 0.000176907 85.1363 0.35245 86.3693 1.057C87.6079 1.75586 88.5852 2.7729 89.3011 4.10813C90.0227 5.44336 90.3835 7.06268 90.3835 8.96609ZM86.642 8.96609C86.642 7.73313 86.4573 6.69336 86.088 5.84677C85.7244 5.00018 85.2102 4.35813 84.5454 3.92063C83.8806 3.48313 83.1022 3.26438 82.2102 3.26438C81.3181 3.26438 80.5397 3.48313 79.875 3.92063C79.2102 4.35813 78.6931 5.00018 78.3238 5.84677C77.9602 6.69336 77.7784 7.73313 77.7784 8.96609C77.7784 10.199 77.9602 11.2388 78.3238 12.0854C78.6931 12.932 79.2102 13.574 79.875 14.0115C80.5397 14.449 81.3181 14.6678 82.2102 14.6678C83.1022 14.6678 83.8806 14.449 84.5454 14.0115C85.2102 13.574 85.7244 12.932 86.088 12.0854C86.4573 11.2388 86.642 10.199 86.642 8.96609ZM107.717 0.238813V17.6934H104.529L96.9353 6.70756H96.8075V17.6934H93.1171V0.238813H96.3558L103.89 11.2161H104.043V0.238813H107.717Z" fill="white"/>
</svg>
