<svg width="1404" height="98" viewBox="0 0 1404 98" fill="none" xmlns="http://www.w3.org/2000/svg">
<path d="M0 94.9375V2.8125H19.0625V37.9375H55.0625V2.8125H74.1875V94.9375H55.0625V53.8125H19.0625V94.9375H0ZM133.375 81.1875C141 81.1875 147.042 78.375 151.5 72.75C156 67.125 158.25 59.125 158.25 48.75C158.25 38.4167 156 30.4375 151.5 24.8125C147.042 19.1458 141 16.3125 133.375 16.3125C125.75 16.3125 119.667 19.125 115.125 24.75C110.583 30.375 108.312 38.375 108.312 48.75C108.312 59.125 110.583 67.125 115.125 72.75C119.667 78.375 125.75 81.1875 133.375 81.1875ZM177.5 48.75C177.5 65.2917 172.854 77.9583 163.562 86.75C156.604 93.9167 146.542 97.5 133.375 97.5C120.208 97.5 110.146 93.9167 103.188 86.75C93.8542 77.9583 89.1875 65.2917 89.1875 48.75C89.1875 31.875 93.8542 19.2083 103.188 10.75C110.146 3.58333 120.208 0 133.375 0C146.542 0 156.604 3.58333 163.562 10.75C172.854 19.2083 177.5 31.875 177.5 48.75ZM211.5 18.8125V43.5625H233.312C237.646 43.5625 240.896 43.0625 243.062 42.0625C246.896 40.3125 248.812 36.8542 248.812 31.6875C248.812 26.1042 246.958 22.3542 243.25 20.4375C241.167 19.3542 238.042 18.8125 233.875 18.8125H211.5ZM237.875 2.8125C244.333 2.9375 249.292 3.72917 252.75 5.1875C256.25 6.64583 259.208 8.79167 261.625 11.625C263.625 13.9583 265.208 16.5417 266.375 19.375C267.542 22.2083 268.125 25.4375 268.125 29.0625C268.125 33.4375 267.021 37.75 264.812 42C262.604 46.2083 258.958 49.1875 253.875 50.9375C258.125 52.6458 261.125 55.0833 262.875 58.25C264.667 61.375 265.562 66.1667 265.562 72.625V78.8125C265.562 83.0208 265.729 85.875 266.062 87.375C266.562 89.75 267.729 91.5 269.562 92.625V94.9375H248.375C247.792 92.8958 247.375 91.25 247.125 90C246.625 87.4167 246.354 84.7708 246.312 82.0625L246.188 73.5C246.104 67.625 245.021 63.7083 242.938 61.75C240.896 59.7917 237.042 58.8125 231.375 58.8125H211.5V94.9375H192.688V2.8125H237.875ZM302.375 94.9375H283.25V2.8125H302.375V94.9375ZM313.875 78.6875L361.438 19.125H315.062V2.8125H385.438V18.25L337.25 78.6875H385.562V94.9375H313.875V78.6875ZM439.375 81.1875C447 81.1875 453.042 78.375 457.5 72.75C462 67.125 464.25 59.125 464.25 48.75C464.25 38.4167 462 30.4375 457.5 24.8125C453.042 19.1458 447 16.3125 439.375 16.3125C431.75 16.3125 425.667 19.125 421.125 24.75C416.583 30.375 414.312 38.375 414.312 48.75C414.312 59.125 416.583 67.125 421.125 72.75C425.667 78.375 431.75 81.1875 439.375 81.1875ZM483.5 48.75C483.5 65.2917 478.854 77.9583 469.562 86.75C462.604 93.9167 452.542 97.5 439.375 97.5C426.208 97.5 416.146 93.9167 409.188 86.75C399.854 77.9583 395.188 65.2917 395.188 48.75C395.188 31.875 399.854 19.2083 409.188 10.75C416.146 3.58333 426.208 0 439.375 0C452.542 0 462.604 3.58333 469.562 10.75C478.854 19.2083 483.5 31.875 483.5 48.75ZM497.938 2.8125H518.125L554.812 67.125V2.8125H572.75V94.9375H553.5L515.875 29.5V94.9375H497.938V2.8125ZM646.812 60.125H670.188L658.688 23.875L646.812 60.125ZM648 2.8125H669.75L702.375 94.9375H681.5L675.562 76H641.625L635.25 94.9375H615.125L648 2.8125ZM732.812 18.8125V78.9375H750.562C759.646 78.9375 765.979 74.4583 769.562 65.5C771.521 60.5833 772.5 54.7292 772.5 47.9375C772.5 38.5625 771.021 31.375 768.062 26.375C765.146 21.3333 759.312 18.8125 750.562 18.8125H732.812ZM753.812 2.8125C759.521 2.89583 764.271 3.5625 768.062 4.8125C774.521 6.9375 779.75 10.8333 783.75 16.5C786.958 21.0833 789.146 26.0417 790.312 31.375C791.479 36.7083 792.062 41.7917 792.062 46.625C792.062 58.875 789.604 69.25 784.688 77.75C778.021 89.2083 767.729 94.9375 753.812 94.9375H714.125V2.8125H753.812ZM860.562 2.8125H880.562L849.125 94.9375H830.938L799.812 2.8125H820.375L840.375 72.75L860.562 2.8125ZM960.125 19.125H911.375V38.6875H956.125V54.6875H911.375V78.375H962.375V94.9375H892.562V2.8125H960.125V19.125ZM977.062 2.8125H997.25L1033.94 67.125V2.8125H1051.88V94.9375H1032.62L995 29.5V94.9375H977.062V2.8125ZM1136.81 2.8125V19.125H1109.25V94.9375H1089.88V19.125H1062.19V2.8125H1136.81ZM1148.12 2.8125H1167.69V59.4375C1167.69 65.7708 1168.44 70.3958 1169.94 73.3125C1172.27 78.4792 1177.35 81.0625 1185.19 81.0625C1192.98 81.0625 1198.04 78.4792 1200.38 73.3125C1201.88 70.3958 1202.62 65.7708 1202.62 59.4375V2.8125H1222.19V59.4375C1222.19 69.2292 1220.67 76.8542 1217.62 82.3125C1211.96 92.3125 1201.15 97.3125 1185.19 97.3125C1169.23 97.3125 1158.4 92.3125 1152.69 82.3125C1149.65 76.8542 1148.12 69.2292 1148.12 59.4375V2.8125ZM1259.88 18.8125V43.5625H1281.69C1286.02 43.5625 1289.27 43.0625 1291.44 42.0625C1295.27 40.3125 1297.19 36.8542 1297.19 31.6875C1297.19 26.1042 1295.33 22.3542 1291.62 20.4375C1289.54 19.3542 1286.42 18.8125 1282.25 18.8125H1259.88ZM1286.25 2.8125C1292.71 2.9375 1297.67 3.72917 1301.12 5.1875C1304.62 6.64583 1307.58 8.79167 1310 11.625C1312 13.9583 1313.58 16.5417 1314.75 19.375C1315.92 22.2083 1316.5 25.4375 1316.5 29.0625C1316.5 33.4375 1315.4 37.75 1313.19 42C1310.98 46.2083 1307.33 49.1875 1302.25 50.9375C1306.5 52.6458 1309.5 55.0833 1311.25 58.25C1313.04 61.375 1313.94 66.1667 1313.94 72.625V78.8125C1313.94 83.0208 1314.1 85.875 1314.44 87.375C1314.94 89.75 1316.1 91.5 1317.94 92.625V94.9375H1296.75C1296.17 92.8958 1295.75 91.25 1295.5 90C1295 87.4167 1294.73 84.7708 1294.69 82.0625L1294.56 73.5C1294.48 67.625 1293.4 63.7083 1291.31 61.75C1289.27 59.7917 1285.42 58.8125 1279.75 58.8125H1259.88V94.9375H1241.06V2.8125H1286.25ZM1401.25 19.125H1352.5V38.6875H1397.25V54.6875H1352.5V78.375H1403.5V94.9375H1333.69V2.8125H1401.25V19.125Z" fill="#01444C"/>
</svg>
