<svg width="498" height="563" viewBox="0 0 498 563" fill="none" xmlns="http://www.w3.org/2000/svg">
<g filter="url(#filter0_d_822_35)">
<path d="M462 4C475.807 4 487 15.1929 487 29V524C487 537.807 475.807 549 462 549H32C18.1929 549 7 537.807 7 524V29C7 15.1929 18.1929 4 32 4H148.876C138.172 21.4677 132 42.0127 132 64C132 127.513 183.487 179 247 179C310.513 179 362 127.513 362 64C362 42.0127 355.828 21.4677 345.124 4H462Z" fill="white"/>
</g>
<defs>
<filter id="filter0_d_822_35" x="0" y="0" width="498" height="563" filterUnits="userSpaceOnUse" color-interpolation-filters="sRGB">
<feFlood flood-opacity="0" result="BackgroundImageFix"/>
<feColorMatrix in="SourceAlpha" type="matrix" values="0 0 0 0 0 0 0 0 0 0 0 0 0 0 0 0 0 0 127 0" result="hardAlpha"/>
<feOffset dx="2" dy="5"/>
<feGaussianBlur stdDeviation="4.5"/>
<feComposite in2="hardAlpha" operator="out"/>
<feColorMatrix type="matrix" values="0 0 0 0 0.70032 0 0 0 0 0.70032 0 0 0 0 0.70032 0 0 0 0.25 0"/>
<feBlend mode="normal" in2="BackgroundImageFix" result="effect1_dropShadow_822_35"/>
<feBlend mode="normal" in="SourceGraphic" in2="effect1_dropShadow_822_35" result="shape"/>
</filter>
</defs>
</svg>
