<svg width="74" height="1053" viewBox="0 0 74 1053" fill="none" xmlns="http://www.w3.org/2000/svg">
<path d="M1.92188 0H71.0156V14.2969H44.6719V41.2969H71.0156V55.6406H1.92188L1.92188 41.2969H32.7656V14.2969H1.92188V0ZM12.2344 100.031C12.2344 105.75 14.3438 110.281 18.5625 113.625C22.7813 117 28.7813 118.688 36.5625 118.688C44.3125 118.688 50.2969 117 54.5156 113.625C58.7656 110.281 60.8906 105.75 60.8906 100.031C60.8906 94.3125 58.7813 89.75 54.5625 86.3438C50.3438 82.9375 44.3438 81.2344 36.5625 81.2344C28.7813 81.2344 22.7813 82.9375 18.5625 86.3438C14.3438 89.75 12.2344 94.3125 12.2344 100.031ZM36.5625 133.125C24.1563 133.125 14.6563 129.641 8.0625 122.672C2.6875 117.453 0 109.906 0 100.031C0 90.1562 2.6875 82.6094 8.0625 77.3906C14.6563 70.3906 24.1563 66.8906 36.5625 66.8906C49.2188 66.8906 58.7188 70.3906 65.0625 77.3906C70.4375 82.6094 73.125 90.1562 73.125 100.031C73.125 109.906 70.4375 117.453 65.0625 122.672C58.7188 129.641 49.2188 133.125 36.5625 133.125ZM59.0156 158.625H40.4531V174.984C40.4531 178.234 40.8281 180.672 41.5781 182.297C42.8906 185.172 45.4844 186.609 49.3594 186.609C53.5469 186.609 56.3594 185.219 57.7969 182.438C58.6094 180.875 59.0156 178.531 59.0156 175.406V158.625ZM71.0156 178.406C70.9219 183.25 70.3281 186.969 69.2344 189.562C68.1406 192.188 66.5312 194.406 64.4063 196.219C62.6563 197.719 60.7188 198.906 58.5938 199.781C56.4688 200.656 54.0469 201.094 51.3281 201.094C48.0469 201.094 44.8125 200.266 41.625 198.609C38.4688 196.953 36.2344 194.219 34.9219 190.406C33.6406 193.594 31.8125 195.844 29.4375 197.156C27.0938 198.5 23.5 199.172 18.6563 199.172H14.0156C10.8594 199.172 8.71875 199.297 7.59375 199.547C5.8125 199.922 4.5 200.797 3.65625 202.172H1.92188V186.281C3.45313 185.844 4.6875 185.531 5.625 185.344C7.5625 184.969 9.54688 184.766 11.5781 184.734L18 184.641C22.4063 184.578 25.3438 183.766 26.8125 182.203C28.2813 180.672 29.0156 177.781 29.0156 173.531V158.625H1.92188V144.516H71.0156V178.406ZM1.92188 226.781V212.438H71.0156V226.781H1.92188ZM14.1094 235.406L58.7813 271.078V236.297H71.0156V289.078H59.4375L14.1094 252.938L14.1094 289.172H1.92188L1.92188 235.406H14.1094ZM12.2344 329.531C12.2344 335.25 14.3438 339.781 18.5625 343.125C22.7813 346.5 28.7813 348.188 36.5625 348.188C44.3125 348.188 50.2969 346.5 54.5156 343.125C58.7656 339.781 60.8906 335.25 60.8906 329.531C60.8906 323.812 58.7813 319.25 54.5625 315.844C50.3438 312.438 44.3438 310.734 36.5625 310.734C28.7813 310.734 22.7813 312.438 18.5625 315.844C14.3438 319.25 12.2344 323.812 12.2344 329.531ZM36.5625 362.625C24.1563 362.625 14.6563 359.141 8.0625 352.172C2.6875 346.953 0 339.406 0 329.531C0 319.656 2.6875 312.109 8.0625 306.891C14.6563 299.891 24.1563 296.391 36.5625 296.391C49.2188 296.391 58.7188 299.891 65.0625 306.891C70.4375 312.109 73.125 319.656 73.125 329.531C73.125 339.406 70.4375 346.953 65.0625 352.172C58.7188 359.141 49.2188 362.625 36.5625 362.625ZM71.0156 373.453V388.594L22.7813 416.109H71.0156V429.562H1.92188V415.125L51 386.906H1.92188V373.453H71.0156ZM28.0313 485.109L28.0313 502.641L55.2188 494.016L28.0313 485.109ZM71.0156 486V502.312L1.92188 526.781L1.92188 511.125L16.125 506.672V481.219L1.92188 476.438V461.344L71.0156 486ZM59.0156 549.609H13.9219V562.922C13.9219 569.734 17.2813 574.484 24 577.172C27.6875 578.641 32.0781 579.375 37.1719 579.375C44.2031 579.375 49.5938 578.266 53.3438 576.047C57.125 573.859 59.0156 569.484 59.0156 562.922V549.609ZM71.0156 565.359C70.9531 569.641 70.4531 573.203 69.5156 576.047C67.9219 580.891 65 584.812 60.75 587.812C57.3125 590.219 53.5938 591.859 49.5938 592.734C45.5938 593.609 41.7813 594.047 38.1563 594.047C28.9688 594.047 21.1875 592.203 14.8125 588.516C6.21875 583.516 1.92188 575.797 1.92188 565.359V535.594H71.0156V565.359ZM71.0156 645.422V660.422L1.92188 636.844L1.92188 623.203L71.0156 599.859L71.0156 615.281L18.5625 630.281L71.0156 645.422ZM58.7813 720.094V683.531H44.1094V717.094H32.1094V683.531H14.3438V721.781H1.92188V669.422H71.0156V720.094H58.7813ZM71.0156 732.797V747.938L22.7813 775.453H71.0156L71.0156 788.906H1.92188V774.469L51 746.25H1.92188V732.797H71.0156ZM71.0156 852.609H58.7813L58.7813 831.938H1.92188V817.406H58.7813V796.641H71.0156V852.609ZM71.0156 861.094V875.766H28.5469C23.7969 875.766 20.3281 876.328 18.1406 877.453C14.2656 879.203 12.3281 883.016 12.3281 888.891C12.3281 894.734 14.2656 898.531 18.1406 900.281C20.3281 901.406 23.7969 901.969 28.5469 901.969H71.0156V916.641H28.5469C21.2031 916.641 15.4844 915.5 11.3906 913.219C3.89063 908.969 0.140625 900.859 0.140625 888.891C0.140625 876.922 3.89063 868.797 11.3906 864.516C15.4844 862.234 21.2031 861.094 28.5469 861.094H71.0156ZM59.0156 944.906H40.4531V961.266C40.4531 964.516 40.8281 966.953 41.5781 968.578C42.8906 971.453 45.4844 972.891 49.3594 972.891C53.5469 972.891 56.3594 971.5 57.7969 968.719C58.6094 967.156 59.0156 964.812 59.0156 961.688V944.906ZM71.0156 964.688C70.9219 969.531 70.3281 973.25 69.2344 975.844C68.1406 978.469 66.5313 980.688 64.4063 982.5C62.6563 984 60.7188 985.188 58.5938 986.062C56.4688 986.938 54.0469 987.375 51.3281 987.375C48.0469 987.375 44.8125 986.547 41.625 984.891C38.4688 983.234 36.2344 980.5 34.9219 976.688C33.6406 979.875 31.8125 982.125 29.4375 983.438C27.0938 984.781 23.5 985.453 18.6563 985.453H14.0156C10.8594 985.453 8.71875 985.578 7.59375 985.828C5.8125 986.203 4.5 987.078 3.65625 988.453H1.92188L1.92188 972.562C3.45313 972.125 4.6875 971.812 5.625 971.625C7.5625 971.25 9.54688 971.047 11.5781 971.016L18 970.922C22.4063 970.859 25.3438 970.047 26.8125 968.484C28.2813 966.953 29.0156 964.062 29.0156 959.812L29.0156 944.906H1.92188V930.797H71.0156V964.688ZM58.7813 1050.94V1014.38H44.1094V1047.94H32.1094V1014.38H14.3438V1052.62H1.92188V1000.27H71.0156V1050.94H58.7813Z" fill="#01444C"/>
</svg>
