<svg width="28" height="20" viewBox="0 0 28 20" fill="none" xmlns="http://www.w3.org/2000/svg">
<path d="M1.95833 0H11.75C12.2694 0 12.7675 0.206324 13.1347 0.573583C13.502 0.940841 13.7083 1.43895 13.7083 1.95833C13.7083 2.47772 13.502 2.97583 13.1347 3.34308C12.7675 3.71034 12.2694 3.91667 11.75 3.91667H1.95833C1.43895 3.91667 0.940841 3.71034 0.573583 3.34308C0.206324 2.97583 0 2.47772 0 1.95833C0 1.43895 0.206324 0.940841 0.573583 0.573583C0.940841 0.206324 1.43895 0 1.95833 0ZM15.6667 15.6667H25.4583C25.9777 15.6667 26.4758 15.873 26.8431 16.2402C27.2103 16.6075 27.4167 17.1056 27.4167 17.625C27.4167 18.1444 27.2103 18.6425 26.8431 19.0098C26.4758 19.377 25.9777 19.5833 25.4583 19.5833H15.6667C15.1473 19.5833 14.6492 19.377 14.2819 19.0098C13.9147 18.6425 13.7083 18.1444 13.7083 17.625C13.7083 17.1056 13.9147 16.6075 14.2819 16.2402C14.6492 15.873 15.1473 15.6667 15.6667 15.6667ZM1.95833 7.83333H25.4583C25.9777 7.83333 26.4758 8.03966 26.8431 8.40692C27.2103 8.77418 27.4167 9.27228 27.4167 9.79167C27.4167 10.311 27.2103 10.8092 26.8431 11.1764C26.4758 11.5437 25.9777 11.75 25.4583 11.75H1.95833C1.43895 11.75 0.940841 11.5437 0.573583 11.1764C0.206324 10.8092 0 10.311 0 9.79167C0 9.27228 0.206324 8.77418 0.573583 8.40692C0.940841 8.03966 1.43895 7.83333 1.95833 7.83333Z" fill="white"/>
</svg>
